<?xml version="1.0" encoding="UTF-8" standalone="no"?>
<!DOCTYPE svg PUBLIC "-//W3C//DTD SVG 1.1//EN"
 "http://www.w3.org/Graphics/SVG/1.1/DTD/svg11.dtd">
<!-- Generated by graphviz version 14.1.1 (20251213.1925)
 -->
<!-- Title: KendoApp Pages: 1 -->
<svg width="899pt" height="859pt"
 viewBox="0.00 0.00 899.00 859.00" xmlns="http://www.w3.org/2000/svg" xmlns:xlink="http://www.w3.org/1999/xlink">
<g id="graph0" class="graph" transform="scale(1 1) rotate(0) translate(28.8 830.4)">
<title>KendoApp</title>
<polygon fill="white" stroke="none" points="-28.8,28.8 -28.8,-830.4 869.88,-830.4 869.88,28.8 -28.8,28.8"/>
<text xml:space="preserve" text-anchor="middle" x="420.54" y="-785.25" font-family="Arial Bold" font-size="13.00">KendoApp domain model</text>
<!-- m_Comment -->
<g id="node1" class="node">
<title>m_Comment</title>
<path fill="none" stroke="black" d="M12,-298.4C12,-298.4 132.08,-298.4 132.08,-298.4 138.08,-298.4 144.08,-304.4 144.08,-310.4 144.08,-310.4 144.08,-330.3 144.08,-330.3 144.08,-336.3 138.08,-342.3 132.08,-342.3 132.08,-342.3 12,-342.3 12,-342.3 6,-342.3 0,-336.3 0,-330.3 0,-330.3 0,-310.4 0,-310.4 0,-304.4 6,-298.4 12,-298.4"/>
<text xml:space="preserve" text-anchor="start" x="44.54" y="-328.25" font-family="Arial Bold" font-size="11.00">Comment</text>
<polyline fill="none" stroke="black" points="0,-321.6 144.08,-321.6"/>
<text xml:space="preserve" text-anchor="start" x="7.04" y="-307.5" font-family="Arial" font-size="10.00">content </text>
<text xml:space="preserve" text-anchor="start" x="42.29" y="-307.5" font-family="Arial Italic" font-size="10.00" fill="#999999">text ∗</text>
</g>
<!-- m_IndividualScore -->
<g id="node2" class="node">
<title>m_IndividualScore</title>
<path fill="none" stroke="black" d="M358.38,-221.4C358.38,-221.4 491.71,-221.4 491.71,-221.4 497.71,-221.4 503.71,-227.4 503.71,-233.4 503.71,-233.4 503.71,-407.3 503.71,-407.3 503.71,-413.3 497.71,-419.3 491.71,-419.3 491.71,-419.3 358.38,-419.3 358.38,-419.3 352.38,-419.3 346.38,-413.3 346.38,-407.3 346.38,-407.3 346.38,-233.4 346.38,-233.4 346.38,-227.4 352.38,-221.4 358.38,-221.4"/>
<text xml:space="preserve" text-anchor="start" x="382.17" y="-405.25" font-family="Arial Bold" font-size="11.00">IndividualScore</text>
<polyline fill="none" stroke="black" points="346.38,-398.6 503.71,-398.6"/>
<text xml:space="preserve" text-anchor="start" x="353.42" y="-384.5" font-family="Arial" font-size="10.00">hansoku_count_my </text>
<text xml:space="preserve" text-anchor="start" x="441.17" y="-384.5" font-family="Arial Italic" font-size="10.00" fill="#999999">integer</text>
<text xml:space="preserve" text-anchor="start" x="353.42" y="-370.5" font-family="Arial" font-size="10.00">hansoku_count_opponent </text>
<text xml:space="preserve" text-anchor="start" x="467.42" y="-370.5" font-family="Arial Italic" font-size="10.00" fill="#999999">integer</text>
<text xml:space="preserve" text-anchor="start" x="353.42" y="-356.5" font-family="Arial" font-size="10.00">is_draw </text>
<text xml:space="preserve" text-anchor="start" x="390.17" y="-356.5" font-family="Arial Italic" font-size="10.00" fill="#999999">boolean</text>
<text xml:space="preserve" text-anchor="start" x="353.42" y="-342.5" font-family="Arial" font-size="10.00">is_encho </text>
<text xml:space="preserve" text-anchor="start" x="395.42" y="-342.5" font-family="Arial Italic" font-size="10.00" fill="#999999">boolean</text>
<text xml:space="preserve" text-anchor="start" x="353.42" y="-328.5" font-family="Arial" font-size="10.00">is_fusenshow </text>
<text xml:space="preserve" text-anchor="start" x="416.42" y="-328.5" font-family="Arial Italic" font-size="10.00" fill="#999999">boolean</text>
<text xml:space="preserve" text-anchor="start" x="353.42" y="-314.5" font-family="Arial" font-size="10.00">is_hantei </text>
<text xml:space="preserve" text-anchor="start" x="395.42" y="-314.5" font-family="Arial Italic" font-size="10.00" fill="#999999">boolean</text>
<text xml:space="preserve" text-anchor="start" x="353.42" y="-300.5" font-family="Arial" font-size="10.00">my_name </text>
<text xml:space="preserve" text-anchor="start" x="399.17" y="-300.5" font-family="Arial Italic" font-size="10.00" fill="#999999">string ∗</text>
<text xml:space="preserve" text-anchor="start" x="353.42" y="-286.5" font-family="Arial" font-size="10.00">my_team_name </text>
<text xml:space="preserve" text-anchor="start" x="426.17" y="-286.5" font-family="Arial Italic" font-size="10.00" fill="#999999">string</text>
<text xml:space="preserve" text-anchor="start" x="353.42" y="-272.5" font-family="Arial" font-size="10.00">opponent_name </text>
<text xml:space="preserve" text-anchor="start" x="425.42" y="-272.5" font-family="Arial Italic" font-size="10.00" fill="#999999">string</text>
<text xml:space="preserve" text-anchor="start" x="353.42" y="-258.5" font-family="Arial" font-size="10.00">opponent_team_name </text>
<text xml:space="preserve" text-anchor="start" x="452.42" y="-258.5" font-family="Arial Italic" font-size="10.00" fill="#999999">string</text>
<text xml:space="preserve" text-anchor="start" x="353.42" y="-244.5" font-family="Arial" font-size="10.00">points_history </text>
<text xml:space="preserve" text-anchor="start" x="417.17" y="-244.5" font-family="Arial Italic" font-size="10.00" fill="#999999">text</text>
<text xml:space="preserve" text-anchor="start" x="353.42" y="-230.5" font-family="Arial" font-size="10.00">result </text>
<text xml:space="preserve" text-anchor="start" x="380.42" y="-230.5" font-family="Arial Italic" font-size="10.00" fill="#999999">string ∗</text>
</g>
<!-- m_Like -->
<g id="node3" class="node">
<title>m_Like</title>
<path fill="none" stroke="black" d="M185,-302.35C185,-302.35 305.08,-302.35 305.08,-302.35 311.08,-302.35 317.08,-308.35 317.08,-314.35 317.08,-314.35 317.08,-326.35 317.08,-326.35 317.08,-332.35 311.08,-338.35 305.08,-338.35 305.08,-338.35 185,-338.35 185,-338.35 179,-338.35 173,-332.35 173,-326.35 173,-326.35 173,-314.35 173,-314.35 173,-308.35 179,-302.35 185,-302.35"/>
<text xml:space="preserve" text-anchor="start" x="232.17" y="-316.8" font-family="Arial Bold" font-size="11.00">Like</text>
</g>
<!-- m_Match -->
<g id="node4" class="node">
<title>m_Match</title>
<path fill="none" stroke="black" d="M363,-463.3C363,-463.3 483.08,-463.3 483.08,-463.3 489.08,-463.3 495.08,-469.3 495.08,-475.3 495.08,-475.3 495.08,-551.2 495.08,-551.2 495.08,-557.2 489.08,-563.2 483.08,-563.2 483.08,-563.2 363,-563.2 363,-563.2 357,-563.2 351,-557.2 351,-551.2 351,-551.2 351,-475.3 351,-475.3 351,-469.3 357,-463.3 363,-463.3"/>
<text xml:space="preserve" text-anchor="start" x="405.29" y="-549.15" font-family="Arial Bold" font-size="11.00">Match</text>
<polyline fill="none" stroke="black" points="351,-542.5 495.08,-542.5"/>
<text xml:space="preserve" text-anchor="start" x="358.04" y="-528.4" font-family="Arial" font-size="10.00">location </text>
<text xml:space="preserve" text-anchor="start" x="394.79" y="-528.4" font-family="Arial Italic" font-size="10.00" fill="#999999">string</text>
<text xml:space="preserve" text-anchor="start" x="358.04" y="-514.4" font-family="Arial" font-size="10.00">match_date </text>
<text xml:space="preserve" text-anchor="start" x="412.04" y="-514.4" font-family="Arial Italic" font-size="10.00" fill="#999999">date ∗</text>
<text xml:space="preserve" text-anchor="start" x="358.04" y="-500.4" font-family="Arial" font-size="10.00">match_type </text>
<text xml:space="preserve" text-anchor="start" x="412.04" y="-500.4" font-family="Arial Italic" font-size="10.00" fill="#999999">string ∗</text>
<text xml:space="preserve" text-anchor="start" x="358.04" y="-486.4" font-family="Arial" font-size="10.00">memo </text>
<text xml:space="preserve" text-anchor="start" x="388.04" y="-486.4" font-family="Arial Italic" font-size="10.00" fill="#999999">text</text>
<text xml:space="preserve" text-anchor="start" x="358.04" y="-472.4" font-family="Arial" font-size="10.00">title </text>
<text xml:space="preserve" text-anchor="start" x="376.79" y="-472.4" font-family="Arial Italic" font-size="10.00" fill="#999999">string ∗</text>
</g>
<!-- m_Match&#45;&gt;m_IndividualScore -->
<g id="edge9" class="edge">
<title>m_Match&#45;&gt;m_IndividualScore</title>
<path fill="none" stroke="black" d="M423.56,-463.09C423.7,-449.72 423.85,-434.76 424.01,-419.69"/>
</g>
<!-- m_TeamScore -->
<g id="node8" class="node">
<title>m_TeamScore</title>
<path fill="none" stroke="black" d="M545,-277.4C545,-277.4 665.08,-277.4 665.08,-277.4 671.08,-277.4 677.08,-283.4 677.08,-289.4 677.08,-289.4 677.08,-351.3 677.08,-351.3 677.08,-357.3 671.08,-363.3 665.08,-363.3 665.08,-363.3 545,-363.3 545,-363.3 539,-363.3 533,-357.3 533,-351.3 533,-351.3 533,-289.4 533,-289.4 533,-283.4 539,-277.4 545,-277.4"/>
<text xml:space="preserve" text-anchor="start" x="573.79" y="-349.25" font-family="Arial Bold" font-size="11.00">TeamScore</text>
<polyline fill="none" stroke="black" points="533,-342.6 677.08,-342.6"/>
<text xml:space="preserve" text-anchor="start" x="540.04" y="-328.5" font-family="Arial" font-size="10.00">has_daihyosen </text>
<text xml:space="preserve" text-anchor="start" x="608.29" y="-328.5" font-family="Arial Italic" font-size="10.00" fill="#999999">boolean</text>
<text xml:space="preserve" text-anchor="start" x="540.04" y="-314.5" font-family="Arial" font-size="10.00">my_team_name </text>
<text xml:space="preserve" text-anchor="start" x="612.79" y="-314.5" font-family="Arial Italic" font-size="10.00" fill="#999999">string</text>
<text xml:space="preserve" text-anchor="start" x="540.04" y="-300.5" font-family="Arial" font-size="10.00">opponent_team_name </text>
<text xml:space="preserve" text-anchor="start" x="639.04" y="-300.5" font-family="Arial Italic" font-size="10.00" fill="#999999">string</text>
<text xml:space="preserve" text-anchor="start" x="540.04" y="-286.5" font-family="Arial" font-size="10.00">result </text>
<text xml:space="preserve" text-anchor="start" x="567.04" y="-286.5" font-family="Arial Italic" font-size="10.00" fill="#999999">string ∗</text>
</g>
<!-- m_Match&#45;&gt;m_TeamScore -->
<g id="edge7" class="edge">
<title>m_Match&#45;&gt;m_TeamScore</title>
<path fill="none" stroke="black" d="M475.02,-463.04C489.18,-449.26 504.39,-434.13 518.04,-419.8 535.19,-401.8 553.51,-381.28 568.89,-363.65"/>
</g>
<!-- m_Post -->
<g id="node5" class="node">
<title>m_Post</title>
<path fill="none" stroke="black" d="M131,-477.3C131,-477.3 251.08,-477.3 251.08,-477.3 257.08,-477.3 263.08,-483.3 263.08,-489.3 263.08,-489.3 263.08,-537.2 263.08,-537.2 263.08,-543.2 257.08,-549.2 251.08,-549.2 251.08,-549.2 131,-549.2 131,-549.2 125,-549.2 119,-543.2 119,-537.2 119,-537.2 119,-489.3 119,-489.3 119,-483.3 125,-477.3 131,-477.3"/>
<text xml:space="preserve" text-anchor="start" x="177.04" y="-535.15" font-family="Arial Bold" font-size="11.00">Post</text>
<polyline fill="none" stroke="black" points="119,-528.5 263.08,-528.5"/>
<text xml:space="preserve" text-anchor="start" x="126.04" y="-514.4" font-family="Arial" font-size="10.00">comments_count </text>
<text xml:space="preserve" text-anchor="start" x="204.04" y="-514.4" font-family="Arial Italic" font-size="10.00" fill="#999999">integer ∗</text>
<text xml:space="preserve" text-anchor="start" x="126.04" y="-500.4" font-family="Arial" font-size="10.00">content </text>
<text xml:space="preserve" text-anchor="start" x="161.29" y="-500.4" font-family="Arial Italic" font-size="10.00" fill="#999999">text ∗</text>
<text xml:space="preserve" text-anchor="start" x="126.04" y="-486.4" font-family="Arial" font-size="10.00">likes_count </text>
<text xml:space="preserve" text-anchor="start" x="178.54" y="-486.4" font-family="Arial Italic" font-size="10.00" fill="#999999">integer ∗</text>
</g>
<!-- m_Post&#45;&gt;m_Comment -->
<g id="edge11" class="edge">
<title>m_Post&#45;&gt;m_Comment</title>
<path fill="none" stroke="black" d="M169.21,-477.24C146.67,-441.07 111.87,-385.24 90.61,-351.13"/>
<polygon fill="black" stroke="black" points="93.48,-349.79 86.05,-343.82 88.14,-353.13 93.48,-349.79"/>
</g>
<!-- m_Post&#45;&gt;m_Like -->
<g id="edge10" class="edge">
<title>m_Post&#45;&gt;m_Like</title>
<path fill="none" stroke="black" d="M200.94,-477.24C211.44,-440.13 227.79,-382.33 237.35,-348.52"/>
<polygon fill="black" stroke="black" points="240.37,-349.42 239.79,-339.9 234.31,-347.7 240.37,-349.42"/>
</g>
<!-- m_Schedule -->
<g id="node6" class="node">
<title>m_Schedule</title>
<path fill="none" stroke="black" d="M536,-456.3C536,-456.3 656.08,-456.3 656.08,-456.3 662.08,-456.3 668.08,-462.3 668.08,-468.3 668.08,-468.3 668.08,-558.2 668.08,-558.2 668.08,-564.2 662.08,-570.2 656.08,-570.2 656.08,-570.2 536,-570.2 536,-570.2 530,-570.2 524,-564.2 524,-558.2 524,-558.2 524,-468.3 524,-468.3 524,-462.3 530,-456.3 536,-456.3"/>
<text xml:space="preserve" text-anchor="start" x="569.66" y="-556.15" font-family="Arial Bold" font-size="11.00">Schedule</text>
<polyline fill="none" stroke="black" points="524,-549.5 668.08,-549.5"/>
<text xml:space="preserve" text-anchor="start" x="531.04" y="-535.4" font-family="Arial" font-size="10.00">category </text>
<text xml:space="preserve" text-anchor="start" x="571.54" y="-535.4" font-family="Arial Italic" font-size="10.00" fill="#999999">string</text>
<text xml:space="preserve" text-anchor="start" x="531.04" y="-521.4" font-family="Arial" font-size="10.00">end_time </text>
<text xml:space="preserve" text-anchor="start" x="573.79" y="-521.4" font-family="Arial Italic" font-size="10.00" fill="#999999">datetime (6,0) ∗</text>
<text xml:space="preserve" text-anchor="start" x="531.04" y="-507.4" font-family="Arial" font-size="10.00">location </text>
<text xml:space="preserve" text-anchor="start" x="567.79" y="-507.4" font-family="Arial Italic" font-size="10.00" fill="#999999">string</text>
<text xml:space="preserve" text-anchor="start" x="531.04" y="-493.4" font-family="Arial" font-size="10.00">memo </text>
<text xml:space="preserve" text-anchor="start" x="561.04" y="-493.4" font-family="Arial Italic" font-size="10.00" fill="#999999">text</text>
<text xml:space="preserve" text-anchor="start" x="531.04" y="-479.4" font-family="Arial" font-size="10.00">start_time </text>
<text xml:space="preserve" text-anchor="start" x="577.54" y="-479.4" font-family="Arial Italic" font-size="10.00" fill="#999999">datetime (6,0) ∗</text>
<text xml:space="preserve" text-anchor="start" x="531.04" y="-465.4" font-family="Arial" font-size="10.00">title </text>
<text xml:space="preserve" text-anchor="start" x="549.79" y="-465.4" font-family="Arial Italic" font-size="10.00" fill="#999999">string ∗</text>
</g>
<!-- m_TeamMember -->
<g id="node7" class="node">
<title>m_TeamMember</title>
<path fill="none" stroke="black" d="M538.38,-0.5C538.38,-0.5 671.7,-0.5 671.7,-0.5 677.7,-0.5 683.7,-6.5 683.7,-12.5 683.7,-12.5 683.7,-172.4 683.7,-172.4 683.7,-178.4 677.7,-184.4 671.7,-184.4 671.7,-184.4 538.38,-184.4 538.38,-184.4 532.38,-184.4 526.38,-178.4 526.38,-172.4 526.38,-172.4 526.38,-12.5 526.38,-12.5 526.38,-6.5 532.38,-0.5 538.38,-0.5"/>
<text xml:space="preserve" text-anchor="start" x="568.16" y="-170.35" font-family="Arial Bold" font-size="11.00">TeamMember</text>
<polyline fill="none" stroke="black" points="526.38,-163.7 683.7,-163.7"/>
<text xml:space="preserve" text-anchor="start" x="533.41" y="-149.6" font-family="Arial" font-size="10.00">hansoku_count_my </text>
<text xml:space="preserve" text-anchor="start" x="621.16" y="-149.6" font-family="Arial Italic" font-size="10.00" fill="#999999">integer</text>
<text xml:space="preserve" text-anchor="start" x="533.41" y="-135.6" font-family="Arial" font-size="10.00">hansoku_count_opponent </text>
<text xml:space="preserve" text-anchor="start" x="647.41" y="-135.6" font-family="Arial Italic" font-size="10.00" fill="#999999">integer</text>
<text xml:space="preserve" text-anchor="start" x="533.41" y="-121.6" font-family="Arial" font-size="10.00">is_draw </text>
<text xml:space="preserve" text-anchor="start" x="570.16" y="-121.6" font-family="Arial Italic" font-size="10.00" fill="#999999">boolean</text>
<text xml:space="preserve" text-anchor="start" x="533.41" y="-107.6" font-family="Arial" font-size="10.00">is_encho </text>
<text xml:space="preserve" text-anchor="start" x="575.41" y="-107.6" font-family="Arial Italic" font-size="10.00" fill="#999999">boolean</text>
<text xml:space="preserve" text-anchor="start" x="533.41" y="-93.6" font-family="Arial" font-size="10.00">is_fusenshow </text>
<text xml:space="preserve" text-anchor="start" x="596.41" y="-93.6" font-family="Arial Italic" font-size="10.00" fill="#999999">boolean</text>
<text xml:space="preserve" text-anchor="start" x="533.41" y="-79.6" font-family="Arial" font-size="10.00">is_hantei </text>
<text xml:space="preserve" text-anchor="start" x="575.41" y="-79.6" font-family="Arial Italic" font-size="10.00" fill="#999999">boolean</text>
<text xml:space="preserve" text-anchor="start" x="533.41" y="-65.6" font-family="Arial" font-size="10.00">my_member_name </text>
<text xml:space="preserve" text-anchor="start" x="619.66" y="-65.6" font-family="Arial Italic" font-size="10.00" fill="#999999">string</text>
<text xml:space="preserve" text-anchor="start" x="533.41" y="-51.6" font-family="Arial" font-size="10.00">opponent_member_name </text>
<text xml:space="preserve" text-anchor="start" x="645.91" y="-51.6" font-family="Arial Italic" font-size="10.00" fill="#999999">string</text>
<text xml:space="preserve" text-anchor="start" x="533.41" y="-37.6" font-family="Arial" font-size="10.00">points_history </text>
<text xml:space="preserve" text-anchor="start" x="597.16" y="-37.6" font-family="Arial Italic" font-size="10.00" fill="#999999">text</text>
<text xml:space="preserve" text-anchor="start" x="533.41" y="-23.6" font-family="Arial" font-size="10.00">position </text>
<text xml:space="preserve" text-anchor="start" x="570.16" y="-23.6" font-family="Arial Italic" font-size="10.00" fill="#999999">string ∗</text>
<text xml:space="preserve" text-anchor="start" x="533.41" y="-9.6" font-family="Arial" font-size="10.00">result </text>
<text xml:space="preserve" text-anchor="start" x="560.41" y="-9.6" font-family="Arial Italic" font-size="10.00" fill="#999999">string</text>
</g>
<!-- m_TeamScore&#45;&gt;m_TeamMember -->
<g id="edge8" class="edge">
<title>m_TeamScore&#45;&gt;m_TeamMember</title>
<path fill="none" stroke="black" d="M605.04,-277.12C605.04,-253.82 605.04,-223.8 605.04,-194.8"/>
<polygon fill="black" stroke="black" points="608.19,-195.12 605.04,-186.12 601.89,-195.12 608.19,-195.12"/>
</g>
<!-- m_Todo -->
<g id="node9" class="node">
<title>m_Todo</title>
<path fill="none" stroke="black" d="M709,-463.3C709,-463.3 829.08,-463.3 829.08,-463.3 835.08,-463.3 841.08,-469.3 841.08,-475.3 841.08,-475.3 841.08,-551.2 841.08,-551.2 841.08,-557.2 835.08,-563.2 829.08,-563.2 829.08,-563.2 709,-563.2 709,-563.2 703,-563.2 697,-557.2 697,-551.2 697,-551.2 697,-475.3 697,-475.3 697,-469.3 703,-463.3 709,-463.3"/>
<text xml:space="preserve" text-anchor="start" x="753.91" y="-549.15" font-family="Arial Bold" font-size="11.00">Todo</text>
<polyline fill="none" stroke="black" points="697,-542.5 841.08,-542.5"/>
<text xml:space="preserve" text-anchor="start" x="704.04" y="-528.4" font-family="Arial" font-size="10.00">category </text>
<text xml:space="preserve" text-anchor="start" x="744.54" y="-528.4" font-family="Arial Italic" font-size="10.00" fill="#999999">string</text>
<text xml:space="preserve" text-anchor="start" x="704.04" y="-514.4" font-family="Arial" font-size="10.00">completed </text>
<text xml:space="preserve" text-anchor="start" x="752.04" y="-514.4" font-family="Arial Italic" font-size="10.00" fill="#999999">boolean ∗</text>
<text xml:space="preserve" text-anchor="start" x="704.04" y="-500.4" font-family="Arial" font-size="10.00">due_date </text>
<text xml:space="preserve" text-anchor="start" x="746.79" y="-500.4" font-family="Arial Italic" font-size="10.00" fill="#999999">date</text>
<text xml:space="preserve" text-anchor="start" x="704.04" y="-486.4" font-family="Arial" font-size="10.00">priority </text>
<text xml:space="preserve" text-anchor="start" x="736.29" y="-486.4" font-family="Arial Italic" font-size="10.00" fill="#999999">integer</text>
<text xml:space="preserve" text-anchor="start" x="704.04" y="-472.4" font-family="Arial" font-size="10.00">title </text>
<text xml:space="preserve" text-anchor="start" x="722.79" y="-472.4" font-family="Arial Italic" font-size="10.00" fill="#999999">string ∗</text>
</g>
<!-- m_User -->
<g id="node10" class="node">
<title>m_User</title>
<path fill="none" stroke="black" d="M227.25,-607.2C227.25,-607.2 386.83,-607.2 386.83,-607.2 392.83,-607.2 398.83,-613.2 398.83,-619.2 398.83,-619.2 398.83,-751.1 398.83,-751.1 398.83,-757.1 392.83,-763.1 386.83,-763.1 386.83,-763.1 227.25,-763.1 227.25,-763.1 221.25,-763.1 215.25,-757.1 215.25,-751.1 215.25,-751.1 215.25,-619.2 215.25,-619.2 215.25,-613.2 221.25,-607.2 227.25,-607.2"/>
<text xml:space="preserve" text-anchor="start" x="292.67" y="-749.05" font-family="Arial Bold" font-size="11.00">User</text>
<polyline fill="none" stroke="black" points="215.25,-742.4 398.83,-742.4"/>
<text xml:space="preserve" text-anchor="start" x="222.29" y="-728.3" font-family="Arial" font-size="10.00">confirmation_sent_at </text>
<text xml:space="preserve" text-anchor="start" x="316.04" y="-728.3" font-family="Arial Italic" font-size="10.00" fill="#999999">datetime (6,0)</text>
<text xml:space="preserve" text-anchor="start" x="222.29" y="-714.3" font-family="Arial" font-size="10.00">confirmation_token </text>
<text xml:space="preserve" text-anchor="start" x="307.79" y="-714.3" font-family="Arial Italic" font-size="10.00" fill="#999999">string</text>
<text xml:space="preserve" text-anchor="start" x="222.29" y="-700.3" font-family="Arial" font-size="10.00">confirmed_at </text>
<text xml:space="preserve" text-anchor="start" x="281.54" y="-700.3" font-family="Arial Italic" font-size="10.00" fill="#999999">datetime (6,0)</text>
<text xml:space="preserve" text-anchor="start" x="222.29" y="-686.3" font-family="Arial" font-size="10.00">email </text>
<text xml:space="preserve" text-anchor="start" x="248.54" y="-686.3" font-family="Arial Italic" font-size="10.00" fill="#999999">string ∗ U</text>
<text xml:space="preserve" text-anchor="start" x="222.29" y="-672.3" font-family="Arial" font-size="10.00">encrypted_password </text>
<text xml:space="preserve" text-anchor="start" x="315.29" y="-672.3" font-family="Arial Italic" font-size="10.00" fill="#999999">string ∗</text>
<text xml:space="preserve" text-anchor="start" x="222.29" y="-658.3" font-family="Arial" font-size="10.00">remember_created_at </text>
<text xml:space="preserve" text-anchor="start" x="319.79" y="-658.3" font-family="Arial Italic" font-size="10.00" fill="#999999">datetime (6,0)</text>
<text xml:space="preserve" text-anchor="start" x="222.29" y="-644.3" font-family="Arial" font-size="10.00">reset_password_sent_at </text>
<text xml:space="preserve" text-anchor="start" x="331.79" y="-644.3" font-family="Arial Italic" font-size="10.00" fill="#999999">datetime (6,0)</text>
<text xml:space="preserve" text-anchor="start" x="222.29" y="-630.3" font-family="Arial" font-size="10.00">reset_password_token </text>
<text xml:space="preserve" text-anchor="start" x="323.54" y="-630.3" font-family="Arial Italic" font-size="10.00" fill="#999999">string</text>
<text xml:space="preserve" text-anchor="start" x="222.29" y="-616.3" font-family="Arial" font-size="10.00">unconfirmed_email </text>
<text xml:space="preserve" text-anchor="start" x="307.04" y="-616.3" font-family="Arial Italic" font-size="10.00" fill="#999999">string</text>
</g>
<!-- m_User&#45;&gt;m_Comment -->
<g id="edge5" class="edge">
<title>m_User&#45;&gt;m_Comment</title>
<path fill="none" stroke="black" d="M214.84,-654.28C174.41,-636.43 130.27,-609.5 104.04,-570.7 58.84,-503.83 62.24,-403.45 67.62,-352.87"/>
<polygon fill="black" stroke="black" points="70.73,-353.38 68.64,-344.08 64.47,-352.65 70.73,-353.38"/>
</g>
<!-- m_User&#45;&gt;m_Like -->
<g id="edge4" class="edge">
<title>m_User&#45;&gt;m_Like</title>
<path fill="none" stroke="black" d="M299.45,-606.91C294.54,-562.51 287.32,-505.8 278.04,-455.8 271.07,-418.25 260.04,-375.51 252.67,-348.5"/>
<polygon fill="black" stroke="black" points="255.78,-347.92 250.35,-340.08 249.71,-349.59 255.78,-347.92"/>
</g>
<!-- m_User&#45;&gt;m_Match -->
<g id="edge6" class="edge">
<title>m_User&#45;&gt;m_Match</title>
<path fill="none" stroke="black" d="M359.61,-607.15C367.73,-595.26 375.99,-583.16 383.76,-571.79"/>
<polygon fill="black" stroke="black" points="386.26,-573.71 388.73,-564.5 381.06,-570.16 386.26,-573.71"/>
</g>
<!-- m_User&#45;&gt;m_Post -->
<g id="edge3" class="edge">
<title>m_User&#45;&gt;m_Post</title>
<path fill="none" stroke="black" d="M254.47,-607.15C242.94,-590.27 231.13,-572.97 220.87,-557.94"/>
<polygon fill="black" stroke="black" points="223.55,-556.28 215.88,-550.63 218.35,-559.84 223.55,-556.28"/>
</g>
<!-- m_User&#45;&gt;m_Schedule -->
<g id="edge2" class="edge">
<title>m_User&#45;&gt;m_Schedule</title>
<path fill="none" stroke="black" d="M399.29,-634.41C434.29,-615.06 474.31,-592.37 510.04,-570.7 511.56,-569.78 513.1,-568.84 514.64,-567.89"/>
<polygon fill="black" stroke="black" points="516.28,-570.58 522.26,-563.15 512.95,-565.23 516.28,-570.58"/>
</g>
<!-- m_User&#45;&gt;m_Todo -->
<g id="edge1" class="edge">
<title>m_User&#45;&gt;m_Todo</title>
<path fill="none" stroke="black" d="M399,-664.26C476.83,-645.6 590.22,-614.05 683.04,-570.7 684.65,-569.95 686.27,-569.17 687.89,-568.36"/>
<polygon fill="black" stroke="black" points="689.31,-571.18 695.83,-564.22 686.39,-565.59 689.31,-571.18"/>
</g>
</g>
</svg>
